<svg width="120" height="38" viewBox="0 0 120 38" fill="none" xmlns="http://www.w3.org/2000/svg">
<path fill-rule="evenodd" clip-rule="evenodd" d="M76.9505 9.36652C76.7759 9.21153 76.5667 9.13379 76.3242 9.13379C75.9751 9.13379 75.7009 9.27423 75.5006 9.55511C75.3017 9.83549 75.2001 10.1946 75.2001 10.633C75.2001 11.0538 75.2963 11.3959 75.4882 11.6587C75.6905 11.9391 75.9647 12.0795 76.3064 12.0795C76.6138 12.0795 76.8597 11.9627 77.0467 11.7289C77.2262 11.5127 77.3149 11.2524 77.3149 10.949V10.2388C77.3149 10.1159 77.3065 10.0166 77.2892 9.94082C77.2366 9.7131 77.123 9.5215 76.9505 9.36652Z" fill="white"/>
<path fill-rule="evenodd" clip-rule="evenodd" d="M66.3707 9.09033C65.9939 9.09033 65.7078 9.26036 65.5124 9.60043C65.3448 9.88131 65.261 10.2244 65.261 10.6287C65.261 11.0219 65.3448 11.3584 65.5124 11.6398C65.7147 11.9794 65.9973 12.1494 66.3623 12.1494C66.7198 12.1494 66.999 11.9764 67.2013 11.6313C67.3759 11.3439 67.4612 11.0043 67.4612 10.6111C67.4612 10.2184 67.3778 9.88131 67.2102 9.60043C67.0149 9.26036 66.7337 9.09033 66.3707 9.09033Z" fill="white"/>
<path fill-rule="evenodd" clip-rule="evenodd" d="M71.6528 11.9524C71.8288 11.821 71.9374 11.653 71.9776 11.4484C71.988 11.4017 71.9929 11.346 71.9929 11.2818V10.6248C70.9601 10.6072 70.4434 10.8936 70.4434 11.4835C70.4434 11.7057 70.5029 11.8722 70.6234 11.9835C70.7439 12.0939 70.8971 12.1496 71.0805 12.1496C71.2863 12.1496 71.4782 12.0839 71.6528 11.9524Z" fill="white"/>
<path fill-rule="evenodd" clip-rule="evenodd" d="M62.8773 21.7603C62.4063 21.7603 61.9803 21.9193 61.598 22.2332C61.2162 22.5492 60.9673 22.962 60.8493 23.4741C60.7907 23.7124 60.761 23.9085 60.761 24.062V25.5075C60.761 26.1385 60.9524 26.6706 61.3327 27.105C61.715 27.5389 62.2124 27.756 62.8248 27.756C63.5423 27.756 64.1007 27.4762 64.5003 26.9179C64.8995 26.3582 65.1003 25.6203 65.1003 24.7045C65.1003 23.8608 64.9119 23.1642 64.535 22.6169C64.1235 22.0461 63.5721 21.7603 62.8773 21.7603Z" fill="white"/>
<path fill-rule="evenodd" clip-rule="evenodd" d="M84.2218 12.1495C84.5793 12.1495 84.8605 11.9765 85.0628 11.6309C85.2359 11.344 85.3226 11.0039 85.3226 10.6112C85.3226 10.2185 85.2393 9.88143 85.0717 9.60055C84.8744 9.25999 84.5952 9.09045 84.2307 9.09045C83.8554 9.09045 83.5692 9.25999 83.3719 9.60055C83.2043 9.88143 83.1205 10.2245 83.1205 10.6283C83.1205 11.0215 83.2043 11.3586 83.3719 11.6399C83.5742 11.9795 83.8573 12.1495 84.2218 12.1495Z" fill="white"/>
<path fill-rule="evenodd" clip-rule="evenodd" d="M41.659 11.4397C42.0487 11.0364 42.2441 10.4491 42.2441 9.67764C42.2441 8.98798 42.0636 8.45932 41.7026 8.09067C41.3411 7.72302 40.8145 7.53894 40.1208 7.53894C39.8257 7.53894 39.5743 7.559 39.3671 7.60013V12.018C39.4821 12.036 39.6933 12.0446 39.9993 12.0446C40.7158 12.0446 41.2687 11.8429 41.659 11.4397Z" fill="white"/>
<path fill-rule="evenodd" clip-rule="evenodd" d="M42.2565 18.656H42.2213C42.1037 19.1681 41.9153 19.923 41.6565 20.9221L40.6692 24.0619H43.8621L42.8565 20.9221C42.7503 20.6006 42.5505 19.8452 42.2565 18.656Z" fill="white"/>
<path fill-rule="evenodd" clip-rule="evenodd" d="M46.4035 9.09033C46.0276 9.09033 45.7415 9.26036 45.5451 9.60043C45.3775 9.88131 45.2937 10.2244 45.2937 10.6287C45.2937 11.0219 45.3775 11.3584 45.5451 11.6398C45.7474 11.9794 46.0301 12.1494 46.3945 12.1494C46.7525 12.1494 47.0327 11.9764 47.235 11.6313C47.4086 11.3439 47.4949 11.0043 47.4949 10.6111C47.4949 10.2184 47.4111 9.88131 47.2435 9.60043C47.0476 9.26036 46.7674 9.09033 46.4035 9.09033Z" fill="white"/>
<path fill-rule="evenodd" clip-rule="evenodd" d="M53.0169 21.7603C52.5468 21.7603 52.1199 21.9193 51.7385 22.2332C51.3557 22.5492 51.1058 22.962 50.9883 23.4741C50.9293 23.7124 50.9005 23.9085 50.9005 24.062V25.5075C50.9005 26.1385 51.0914 26.6706 51.4737 27.105C51.8556 27.5389 52.3524 27.756 52.9643 27.756C53.6813 27.756 54.2402 27.4762 54.6399 26.9179C55.0395 26.3582 55.2394 25.6203 55.2394 24.7045C55.2394 23.8608 55.0514 23.1642 54.6751 22.6169C54.2635 22.0461 53.7106 21.7603 53.0169 21.7603Z" fill="white"/>
<path fill-rule="evenodd" clip-rule="evenodd" d="M89.6382 21.6359C88.8721 21.6359 88.2909 21.9819 87.8912 22.6736C87.5496 23.2464 87.38 23.9436 87.38 24.7677C87.38 25.5677 87.5496 26.2533 87.8912 26.8251C88.3033 27.5168 88.879 27.8629 89.6208 27.8629C90.3483 27.8629 90.919 27.5108 91.3306 26.8076C91.6831 26.2232 91.8597 25.5306 91.8597 24.7316C91.8597 23.9321 91.6901 23.2464 91.3484 22.6736C90.9488 21.9819 90.378 21.6359 89.6382 21.6359Z" fill="white"/>
<path fill-rule="evenodd" clip-rule="evenodd" d="M106.624 9.44112C106.462 9.1783 106.214 9.04639 105.879 9.04639C105.574 9.04639 105.324 9.17479 105.134 9.4321C104.979 9.63724 104.886 9.88251 104.856 10.1689H106.805C106.812 9.88802 106.751 9.64526 106.624 9.44112Z" fill="white"/>
<mask id="mask0_0_712" style="mask-type:alpha" maskUnits="userSpaceOnUse" x="0" y="0" width="120" height="37">
<path fill-rule="evenodd" clip-rule="evenodd" d="M119.669 0.501831L0 0.501831V36.7818H119.669V0.501831V0.501831Z" fill="white"/>
</mask>
<g mask="url(#mask0_0_712)">
<path fill-rule="evenodd" clip-rule="evenodd" d="M108.477 25.204H102.762C102.785 26.0607 103.061 26.7157 103.591 27.1676C104.073 27.5719 104.695 27.774 105.46 27.774C106.306 27.774 107.078 27.6371 107.772 27.3632L108.07 28.7014C107.259 29.0586 106.301 29.2371 105.196 29.2371C103.867 29.2371 102.823 28.8419 102.064 28.0499C101.307 27.2594 100.926 26.1976 100.926 24.8649C100.926 23.5573 101.279 22.4679 101.985 21.5997C102.725 20.6723 103.725 20.2088 104.984 20.2088C106.219 20.2088 107.154 20.6723 107.79 21.5997C108.293 22.3375 108.547 23.2483 108.547 24.3302C108.547 24.6753 108.524 24.9667 108.477 25.204ZM99.9073 9.84285C99.8795 9.93564 99.8637 10.0495 99.8637 10.1839V12.7459H98.9285V6.53047H99.8637V9.09852H99.881C100.176 8.63156 100.599 8.39833 101.146 8.39833C101.534 8.39833 101.855 8.52673 102.109 8.78353C102.427 9.10504 102.586 9.58153 102.586 10.2125V12.7459H101.649V10.3239C101.649 9.55997 101.366 9.17827 100.801 9.17827C100.366 9.17827 100.069 9.39996 99.9073 9.84285ZM100.028 22.0992C99.8394 22.0636 99.6385 22.0461 99.4273 22.0461C98.7574 22.0461 98.2392 22.3024 97.8743 22.814C97.5569 23.2659 97.3982 23.8367 97.3982 24.5264V29.0766H95.4941L95.5119 23.1355C95.5119 22.1354 95.4871 21.2255 95.44 20.4049H97.0997L97.1696 22.0636H97.2217C97.4225 21.4939 97.7399 21.0349 98.1748 20.6908C98.5987 20.3809 99.0574 20.2264 99.5513 20.2264C99.7278 20.2264 99.8865 20.2389 100.028 20.262V22.0992ZM95.0632 8.4856H95.6791V7.70515L96.5974 7.42528V8.4856H97.6283V9.19532H96.5974V11.2643C96.5974 11.7905 96.7804 12.0533 97.1433 12.0533C97.311 12.0533 97.4503 12.0387 97.5604 12.0091L97.5847 12.7284C97.3997 12.7981 97.1572 12.8337 96.8572 12.8337C96.4873 12.8337 96.1992 12.7194 95.9914 12.4916C95.7822 12.2634 95.6791 11.8807 95.6791 11.3436V9.19532H95.0632V8.4856ZM92.7073 27.9521C91.9189 28.8328 90.8716 29.2722 89.5665 29.2722C88.3085 29.2722 87.3068 28.8504 86.56 28.0058C85.8133 27.1616 85.4399 26.0963 85.4399 24.8122C85.4399 23.468 85.8237 22.3676 86.5948 21.5114C87.3643 20.6547 88.4027 20.2264 89.7078 20.2264C90.9663 20.2264 91.9784 20.6482 92.7425 21.4939C93.4719 22.3144 93.8364 23.3727 93.8364 24.6693C93.8364 26.002 93.4595 27.0959 92.7073 27.9521ZM84.3633 21.8505H82.2638V26.0607C82.2638 27.1315 82.6338 27.6672 83.3756 27.6672C83.7157 27.6672 83.9984 27.6371 84.222 27.5779L84.2741 29.041C83.8992 29.1834 83.4053 29.2547 82.7924 29.2547C82.0407 29.2547 81.4526 29.0224 81.0286 28.5595C80.6062 28.095 80.3934 27.3156 80.3934 26.2217V21.8505H79.1424V20.4049H80.3934V18.8165L82.2638 18.2457V20.4049H84.3633V21.8505ZM77.4549 12.7459L77.4113 12.0618H77.385C77.1197 12.5819 76.668 12.8422 76.0328 12.8422C75.525 12.8422 75.1025 12.6406 74.7678 12.2374C74.4326 11.8341 74.265 11.3115 74.265 10.6684C74.265 9.97878 74.4465 9.42053 74.811 8.99419C75.1635 8.59645 75.5964 8.39833 76.1111 8.39833C76.6764 8.39833 77.0726 8.59093 77.2977 8.97664H77.3151V6.53047H78.2523V11.5978C78.2523 12.0126 78.2627 12.3948 78.2855 12.7459H77.4549ZM77.0096 28.2019C76.2351 28.9046 75.1566 29.2547 73.7711 29.2547C72.4923 29.2547 71.4658 29.0049 70.6893 28.5053L71.1311 26.8993C71.9667 27.4109 72.8845 27.6672 73.8847 27.6672C74.6017 27.6672 75.16 27.5027 75.5617 27.1757C75.9609 26.8481 76.1602 26.4093 76.1602 25.8615C76.1602 25.3735 75.9961 24.9622 75.6663 24.6287C75.3381 24.2951 74.7901 23.9852 74.026 23.6983C71.9443 22.9128 70.904 21.7627 70.904 20.2495C70.904 19.2609 71.269 18.4503 71.9984 17.8188C72.7258 17.1874 73.6962 16.8714 74.9091 16.8714C75.9906 16.8714 76.8896 17.0625 77.6067 17.4427L77.1301 19.0131C76.4602 18.6444 75.703 18.4598 74.8546 18.4598C74.1847 18.4598 73.661 18.6264 73.2862 18.9594C72.9683 19.2568 72.8096 19.6195 72.8096 20.0483C72.8096 20.5238 72.9911 20.9165 73.3561 21.2255C73.6734 21.5114 74.2491 21.8204 75.0852 22.1539C76.1077 22.5707 76.8599 23.0578 77.3434 23.616C77.8248 24.1758 78.0653 24.8719 78.0653 25.7045C78.0653 26.7272 77.7148 27.5594 77.0096 28.2019ZM69.5067 11.5888C69.5067 11.0687 69.7209 10.6714 70.1523 10.3966C70.5832 10.1222 71.1886 9.9873 71.9686 9.99332V9.91407C71.9686 9.35332 71.6771 9.07294 71.0944 9.07294C70.6789 9.07294 70.3124 9.17827 69.9966 9.38843L69.8067 8.76598C70.1974 8.52071 70.6809 8.39833 71.2516 8.39833C72.3524 8.39833 72.9038 8.98516 72.9038 10.1598V11.7293C72.9038 12.1556 72.9247 12.4947 72.9648 12.7459H72.1238L72.0539 12.2549H72.0281C71.74 12.6466 71.33 12.8422 70.7979 12.8422C70.3997 12.8422 70.0789 12.7138 69.8364 12.4565C69.6162 12.2228 69.5067 11.9334 69.5067 11.5888ZM67.8782 12.1932C67.491 12.6261 66.9762 12.8422 66.3361 12.8422C65.7162 12.8422 65.2243 12.6351 64.8579 12.2198C64.4914 11.805 64.308 11.2819 64.308 10.6509C64.308 9.99082 64.4969 9.45012 64.8753 9.0288C65.2541 8.60798 65.7634 8.39833 66.404 8.39833C67.0233 8.39833 67.5187 8.60547 67.8961 9.02027C68.2536 9.42354 68.4331 9.94367 68.4331 10.5807C68.4331 11.2352 68.2481 11.7729 67.8782 12.1932ZM65.8576 28.1301C65.1529 28.892 64.2767 29.2722 63.23 29.2722C62.1009 29.2722 61.2891 28.8619 60.7962 28.0414H60.761V32.6092H58.8559V23.2599C58.8559 22.332 58.8321 21.381 58.7855 20.4049H60.461L60.5672 21.7787H60.6024C61.2371 20.7435 62.2 20.2264 63.4953 20.2264C64.5053 20.2264 65.3498 20.6306 66.0272 21.4392C66.702 22.2492 67.0407 23.3136 67.0407 24.6337C67.0407 26.1083 66.6465 27.2745 65.8576 28.1301ZM57.8776 9.48824C57.7045 9.69539 57.6177 9.93865 57.6177 10.2185V12.7459H56.6815V9.70442C56.6815 9.32974 56.6701 8.92397 56.6473 8.4856H57.47L57.5136 9.15118H57.5399C57.649 8.94504 57.8111 8.773 58.0248 8.63707C58.2787 8.47808 58.5624 8.39833 58.8738 8.39833C59.2675 8.39833 59.5938 8.52673 59.8536 8.78353C60.1774 9.09902 60.3391 9.5695 60.3391 10.195V12.7459H59.4029V10.3063C59.4029 9.55395 59.1197 9.17827 58.5534 9.17827C58.2762 9.17827 58.0511 9.28159 57.8776 9.48824ZM55.9982 28.1301C55.2921 28.892 54.4164 29.2722 53.3696 29.2722C52.241 29.2722 51.4293 28.8619 50.9354 28.0414H50.9002V32.6092H48.9951V23.2599C48.9951 22.332 48.9713 21.381 48.9247 20.4049H50.6002L50.7063 21.7787H50.7415C51.3767 20.7435 52.3407 20.2264 53.6344 20.2264C54.646 20.2264 55.4895 20.6306 56.1658 21.4392C56.8417 22.2492 57.1799 23.3136 57.1799 24.6337C57.1799 26.1083 56.7862 27.2745 55.9982 28.1301ZM47.9111 12.1932C47.5238 12.6261 47.0096 12.8422 46.3685 12.8422C45.7501 12.8422 45.2577 12.6351 44.8903 12.2198C44.5243 11.805 44.3409 11.2819 44.3409 10.6509C44.3409 9.99082 44.5293 9.45012 44.9081 9.0288C45.2865 8.60798 45.7962 8.39833 46.4374 8.39833C47.0562 8.39833 47.5526 8.60547 47.9285 9.02027C48.286 9.42354 48.466 9.94367 48.466 10.5807C48.466 11.2352 48.281 11.7729 47.9111 12.1932ZM45.3083 29.0766L44.1971 25.5435H40.3338L39.2751 29.0766H37.3L41.1276 17.0504H43.4915L47.3369 29.0766H45.3083ZM27.7923 26.4163C26.8561 27.8327 25.8748 29.2165 24.3167 29.2421C22.8033 29.2777 22.2946 28.3413 20.5581 28.3413C18.8057 28.3413 18.2637 29.2165 16.8118 29.2777C15.3281 29.3334 14.1941 27.766 13.2242 26.3626C11.2848 23.4971 9.77492 18.2873 11.7995 14.7422C12.7804 13.0038 14.5695 11.8842 16.481 11.8542C17.9662 11.8231 19.3452 12.8683 20.2581 12.8683C21.1536 12.8683 22.8574 11.6179 24.6152 11.8045C25.3501 11.8256 27.4432 12.0979 28.7929 14.0892C28.6838 14.1554 26.3002 15.5723 26.326 18.4849C26.3557 21.9764 29.3453 23.13 29.3815 23.1425C29.3637 23.2233 28.9134 24.8077 27.7923 26.4163ZM21.2761 7.98152C22.0898 7.01449 23.5035 6.27517 24.6336 6.22452C24.7819 7.58829 24.2473 8.932 23.4668 9.92009C22.6521 10.8926 21.3485 11.6355 20.0791 11.5402C19.9129 10.2286 20.5566 8.83269 21.2761 7.98152ZM38.4306 6.91618C38.928 6.83493 39.4645 6.7938 40.0432 6.7938C41.0657 6.7938 41.8367 7.0185 42.3569 7.46891C42.9395 7.97701 43.2321 8.70479 43.2321 9.65125C43.2321 10.7151 42.9172 11.5156 42.287 12.0533C41.7034 12.5498 40.8743 12.7981 39.8007 12.7981C39.2681 12.7981 38.8119 12.775 38.4306 12.7284V6.91618ZM50.3463 8.4856L50.8224 10.5104C50.9379 10.9894 51.0326 11.4454 51.109 11.8777H51.1253C51.1953 11.5216 51.3103 11.0687 51.4724 10.519L52.0705 8.4856H52.8326L53.4053 10.4753C53.5437 10.9604 53.6562 11.4283 53.7425 11.8777H53.7688C53.8328 11.4399 53.928 10.9724 54.0554 10.4753L54.5662 8.4856H55.485L54.1675 12.7459H53.3101L52.7637 10.8962C52.6253 10.4347 52.5128 9.97577 52.4255 9.51984H52.4086C52.3278 9.9873 52.2153 10.4462 52.0705 10.8962L51.4903 12.7459H50.623L49.3838 8.4856H50.3463ZM61.9858 12.7454H62.921V6.53047H61.9858V12.7454ZM82.7349 9.0288C83.1138 8.60798 83.6235 8.39833 84.2652 8.39833C84.883 8.39833 85.3804 8.60547 85.7557 9.02027C86.1133 9.42354 86.2933 9.94367 86.2933 10.5807C86.2933 11.2352 86.1083 11.7729 85.7384 12.1932C85.3506 12.6261 84.8379 12.8422 84.1957 12.8422C83.5779 12.8422 83.086 12.6351 82.7176 12.2198C82.3511 11.805 82.1681 11.2819 82.1681 10.6509C82.1681 9.99082 82.3566 9.45012 82.7349 9.0288ZM88.4587 8.4856L88.5024 9.15118H88.5286C88.6382 8.94504 88.8004 8.773 89.0136 8.63707C89.2685 8.47808 89.5511 8.39833 89.863 8.39833C90.2557 8.39833 90.582 8.52673 90.8424 8.78353C91.1667 9.09902 91.3273 9.5695 91.3273 10.195V12.7459H90.3921V10.3063C90.3921 9.55395 90.1095 9.17827 89.5422 9.17827C89.2645 9.17827 89.0399 9.28159 88.8668 9.48824C88.6943 9.69539 88.607 9.93865 88.607 10.2185V12.7459H87.6698V9.70442C87.6698 9.32974 87.6594 8.92397 87.6366 8.4856H88.4587ZM104.476 9.07294C104.839 8.61701 105.329 8.3893 105.948 8.3893C106.554 8.3893 107.015 8.61701 107.326 9.07294C107.575 9.43558 107.698 9.88248 107.698 10.4141C107.698 10.5837 107.686 10.7266 107.664 10.8435H104.856C104.868 11.2643 105.003 11.5858 105.263 11.8075C105.5 12.0066 105.807 12.1059 106.183 12.1059C106.598 12.1059 106.976 12.0387 107.319 11.9043L107.465 12.5619C107.065 12.7369 106.596 12.8247 106.052 12.8247C105.399 12.8247 104.886 12.6306 104.514 12.2419C104.141 11.8531 103.956 11.3315 103.956 10.677C103.956 10.0345 104.129 9.49928 104.476 9.07294ZM-0.00012207 36.7817H119.669V0.501587H-0.00012207V36.7817Z" fill="white"/>
</g>
<path fill-rule="evenodd" clip-rule="evenodd" d="M104.842 21.5468C104.219 21.5468 103.713 21.8081 103.326 22.3322C103.008 22.7485 102.82 23.2481 102.762 23.8309H106.73C106.742 23.2596 106.618 22.7666 106.361 22.3498C106.03 21.8141 105.525 21.5468 104.842 21.5468Z" fill="white"/>
</svg>
