<svg width="133" height="78" viewBox="0 0 133 78" fill="none" xmlns="http://www.w3.org/2000/svg">
<path fill-rule="evenodd" clip-rule="evenodd" d="M39 78C60.5391 78 78 60.5391 78 39C78 17.4609 60.5391 0 39 0C17.4609 0 0 17.4609 0 39C0 60.5391 17.4609 78 39 78Z" fill="#EFC638"/>
<path fill-rule="evenodd" clip-rule="evenodd" d="M94 78C115.539 78 133 60.5391 133 39C133 17.4609 115.539 0 94 0C72.4609 0 55 17.4609 55 39C55 60.5391 72.4609 78 94 78Z" fill="#2FBCF7" style="mix-blend-mode:multiply"/>
<mask id="mask0_0_866" style="mask-type:alpha" maskUnits="userSpaceOnUse" x="27" y="20" width="26" height="25">
<path fill-rule="evenodd" clip-rule="evenodd" d="M39.8528 44.8663H27V20H39.8528L52.7056 20V44.8663H39.8528Z" fill="white"/>
</mask>
<g mask="url(#mask0_0_866)">
<path fill-rule="evenodd" clip-rule="evenodd" d="M27.1275 36.8755C26.7757 36.0446 27.1767 35.0902 28.0237 34.7446C28.2317 34.6603 28.4474 34.6201 28.6598 34.6201C29.3104 34.6201 29.9278 34.9978 30.1927 35.6255C31.729 39.2592 35.5338 41.606 39.8863 41.606C44.1404 41.606 47.9231 39.2576 49.5229 35.6217C49.8869 34.7951 50.8638 34.4141 51.7047 34.7723C52.5455 35.1304 52.9328 36.0897 52.5688 36.9158C50.4429 41.7457 45.4641 44.8663 39.8858 44.8663C34.1879 44.8663 29.1798 41.7304 27.1275 36.8755ZM27.741 24.7288C27.741 22.1217 29.9007 20 32.5554 20C35.2091 20 37.3687 22.1212 37.3687 24.7288C37.3687 25.4793 36.7497 26.0875 35.9858 26.0875C35.2218 26.0875 34.6028 25.4793 34.6028 24.7288C34.6028 23.6196 33.6845 22.7174 32.5554 22.7174C31.4258 22.7174 30.507 23.6196 30.507 24.7288C30.507 25.4793 29.8879 26.0875 29.124 26.0875C28.36 26.0875 27.741 25.4788 27.741 24.7288ZM43.0771 24.7435C43.0771 22.1359 45.2362 20.0147 47.8915 20.0147C50.5452 20.0147 52.7043 22.1353 52.7043 24.7435C52.7043 25.494 52.0853 26.1022 51.3213 26.1022C50.5574 26.1022 49.9384 25.494 49.9384 24.7435C49.9384 23.6342 49.0201 22.7321 47.8915 22.7321C46.7619 22.7321 45.8431 23.6342 45.8431 24.7435C45.8431 25.494 45.2241 26.1022 44.4601 26.1022C43.6961 26.1022 43.0771 25.4935 43.0771 24.7435Z" fill="black"/>
</g>
<mask id="mask1_0_866" style="mask-type:alpha" maskUnits="userSpaceOnUse" x="79" y="20" width="26" height="25">
<path fill-rule="evenodd" clip-rule="evenodd" d="M91.8528 44.8663H79V20H91.8528L104.706 20V44.8663H91.8528Z" fill="white"/>
</mask>
<g mask="url(#mask1_0_866)">
<path fill-rule="evenodd" clip-rule="evenodd" d="M79.1275 36.8755C78.7757 36.0446 79.1767 35.0902 80.0237 34.7446C80.2317 34.6603 80.4474 34.6201 80.6598 34.6201C81.3104 34.6201 81.9278 34.9978 82.1927 35.6255C83.729 39.2592 87.5338 41.606 91.8863 41.606C96.1404 41.606 99.9231 39.2576 101.523 35.6217C101.887 34.7951 102.864 34.4141 103.705 34.7723C104.546 35.1304 104.933 36.0897 104.569 36.9158C102.443 41.7457 97.4641 44.8663 91.8858 44.8663C86.1879 44.8663 81.1798 41.7304 79.1275 36.8755ZM79.741 24.7288C79.741 22.1217 81.9007 20 84.5554 20C87.2091 20 89.3687 22.1212 89.3687 24.7288C89.3687 25.4793 88.7497 26.0875 87.9858 26.0875C87.2218 26.0875 86.6028 25.4793 86.6028 24.7288C86.6028 23.6196 85.6845 22.7174 84.5554 22.7174C83.4258 22.7174 82.507 23.6196 82.507 24.7288C82.507 25.4793 81.8879 26.0875 81.124 26.0875C80.36 26.0875 79.741 25.4788 79.741 24.7288ZM95.0771 24.7435C95.0771 22.1359 97.2362 20.0147 99.8915 20.0147C102.545 20.0147 104.704 22.1353 104.704 24.7435C104.704 25.494 104.085 26.1022 103.321 26.1022C102.557 26.1022 101.938 25.494 101.938 24.7435C101.938 23.6342 101.02 22.7321 99.8915 22.7321C98.7619 22.7321 97.8431 23.6342 97.8431 24.7435C97.8431 25.494 97.2241 26.1022 96.4601 26.1022C95.6961 26.1022 95.0771 25.4935 95.0771 24.7435Z" fill="black"/>
</g>
</svg>
