<svg width="27" height="26" viewBox="0 0 27 26" fill="none" xmlns="http://www.w3.org/2000/svg">
<path fill-rule="evenodd" clip-rule="evenodd" d="M13.061 26C5.85301 26 0.0100098 20.18 0.0100098 13C0.0100098 5.82 5.85301 0 13.061 0C20.269 0 26.112 5.82 26.112 13C26.112 20.18 20.269 26 13.061 26ZM20.465 7.649C19.843 7.992 19.155 8.242 18.423 8.377C17.837 7.793 17.002 7.43 16.077 7.43C14.302 7.43 12.863 8.773 12.863 10.43C12.863 10.665 12.891 10.895 12.946 11.113C10.275 10.988 7.90601 9.794 6.32101 7.978C6.04401 8.422 5.88601 8.937 5.88601 9.487C5.88601 10.528 6.45301 11.447 7.31601 11.985C6.78901 11.969 6.29301 11.834 5.86001 11.609C5.86001 11.622 5.86001 11.634 5.86001 11.647C5.86001 13.101 6.96801 14.314 8.43801 14.589C8.16901 14.658 7.88401 14.694 7.59101 14.694C7.38401 14.694 7.18301 14.676 6.98601 14.641C7.39501 15.832 8.58201 16.7 9.98901 16.725C8.88901 17.529 7.50301 18.009 5.99701 18.009C5.73801 18.009 5.48201 17.995 5.23001 17.968C6.65301 18.818 8.34301 19.315 10.157 19.315C16.07 19.315 19.303 14.742 19.303 10.778C19.303 10.647 19.299 10.518 19.293 10.389C19.921 9.966 20.466 9.438 20.897 8.837C20.321 9.076 19.701 9.236 19.051 9.309C19.715 8.937 20.224 8.349 20.465 7.649Z" fill="white"/>
</svg>
