<svg width="83" height="83" viewBox="0 0 83 83" fill="none" xmlns="http://www.w3.org/2000/svg">
<path fill-rule="evenodd" clip-rule="evenodd" d="M41.5 0C18.5807 0 0 18.5807 0 41.5C0 64.4193 18.5807 83 41.5 83C64.4193 83 83 64.4193 83 41.5C83 18.5807 64.4193 0 41.5 0ZM41.5 3.77279C62.3028 3.77279 79.2272 20.6972 79.2272 41.5C79.2272 49.9019 76.4317 57.6472 71.7685 63.925C66.3246 55.2591 57.5983 49.4378 47.6081 47.7326C52.8936 45.386 56.591 40.1079 56.591 33.9546C56.591 25.6205 49.8339 18.8636 41.5 18.8636C33.1661 18.8636 26.409 25.6205 26.409 33.9546C26.409 40.1079 30.1064 45.3821 35.3919 47.7326C25.4017 49.4378 16.6754 55.2591 11.2315 63.925C6.5683 57.6472 3.77279 49.9019 3.77279 41.5C3.77279 20.6972 20.6972 3.77279 41.5 3.77279ZM30.1818 33.9546C30.1818 27.7144 35.26 22.6364 41.5 22.6364C47.74 22.6364 52.8182 27.7144 52.8182 33.9546C52.8182 40.1946 47.74 45.2728 41.5 45.2728C35.26 45.2728 30.1818 40.1946 30.1818 33.9546ZM41.5 79.2272C30.5364 79.2272 20.682 74.5001 13.7856 67.0075C19.5126 57.0738 29.9139 50.9318 41.5 50.9318C53.0861 50.9318 63.4874 57.0738 69.2144 67.0075C62.318 74.5001 52.4636 79.2272 41.5 79.2272Z" fill="black"/>
</svg>
